<svg xmlns="http://www.w3.org/2000/svg" viewBox="0 0 100 100"><defs><style>.cls-1{fill:#ffa600;}</style></defs><g id="Card_Stack" data-name="Card Stack"><path class="cls-1" d="M3.76,80.5V69.35H17.84V19.5H30.65v51q0,5.05-2.72,7.53c-1.8,1.66-4.34,2.49-7.6,2.49Z"/><path class="cls-1" d="M43.82,80.5v-61H75.38q9.78,0,15.32,4.41t5.54,12.16a14.81,14.81,0,0,1-2.3,8.36,12.27,12.27,0,0,1-6.44,4.89v.38a8.89,8.89,0,0,1,6.44,2.22q2.3,2.22,2.3,6.66V80.5H83.44V57.3H56.55V80.5ZM56.55,46.23h18c2.91,0,5.16-.67,6.74-2a7.22,7.22,0,0,0,2.37-5.8,7.23,7.23,0,0,0-2.37-5.8,10.09,10.09,0,0,0-6.74-2h-18Z"/></g></svg>