<svg xmlns="http://www.w3.org/2000/svg" viewBox="0 0 100 100"><g id="Card_Stack" data-name="Card Stack"><path d="M59.12,18q4.37,0,8.71,0a15.33,15.33,0,0,1,7.26,1.48,12,12,0,0,1,6.68,10.09C82,31.72,82,33.84,82,36q0,14.82,0,29.63a36.05,36.05,0,0,1-.41,6.15,12.05,12.05,0,0,1-10.44,10A36.89,36.89,0,0,1,66.3,82L59,82H41.36c-2.18,0-4.36,0-6.54,0a48.71,48.71,0,0,1-6.16-.33,12,12,0,0,1-10.14-9.5,35.13,35.13,0,0,1-.46-4.6c-.06-.78,0-1.56,0-2.34q0-14.79,0-29.58a48.34,48.34,0,0,1,.31-6.71,11.91,11.91,0,0,1,8.29-10.06,16,16,0,0,1,5.45-.78c7.56,0,15.13,0,22.69,0h4.36m0-6H51.78c-6.47,0-13.16,0-19.74,0a22.17,22.17,0,0,0-7.45,1.13A18,18,0,0,0,12.4,28,48.69,48.69,0,0,0,12,35.13v.46c0,7.87,0,15.86,0,23.6V65.4c0,.78,0,1.66.07,2.6,0,.35.05.7.07,1.06a29,29,0,0,0,.5,4.32A17.94,17.94,0,0,0,27.83,87.57a53.23,53.23,0,0,0,6.94.39c2.2,0,4.4,0,6.59,0H59l7.36,0a42.29,42.29,0,0,0,5.61-.32A18,18,0,0,0,87.46,72.79,41.11,41.11,0,0,0,88,65.6c0-10.24,0-20.31,0-29.66,0-2.18,0-4.5-.24-6.85a18,18,0,0,0-9.83-14.85,21.35,21.35,0,0,0-10-2.18c-3.09,0-6.17,0-8.78,0Z"/><path d="M51.1,47a10.46,10.46,0,0,1,6.18-3.75,10,10,0,0,1,9.13,2.43A9.65,9.65,0,0,1,69,50.62a9.27,9.27,0,0,1,.31,2.46c0,5.2,0,10.41,0,15.61,0,.71,0,.71-.72.71-2.21,0-4.42,0-6.63,0-.45,0-.6-.13-.6-.6q0-6.8,0-13.61a4.47,4.47,0,0,0-1.52-3.7,5.18,5.18,0,0,0-5.32-.69,4.63,4.63,0,0,0-3,3.9,7.38,7.38,0,0,0-.1,1.33q0,6.36,0,12.72c0,.51-.14.66-.64.65q-3.33,0-6.64,0c-.47,0-.64-.13-.64-.62q0-12.32,0-24.64c0-.45.11-.64.62-.63,2.09,0,4.19,0,6.28,0,.46,0,.62.13.6.59C51.08,45,51.1,46,51.1,47Z"/><path d="M39.34,56.49V68.7c0,.7,0,.7-.67.7-2.28,0-4.55,0-6.83,0-.49,0-.62-.16-.62-.63q0-12.31,0-24.64c0-.47.13-.63.62-.62q3.47,0,6.93,0c.47,0,.58.15.58.6Q39.34,50.3,39.34,56.49Z"/><path d="M30.66,35.26a4.64,4.64,0,1,1,4.85,4.61A4.67,4.67,0,0,1,30.66,35.26Z"/></g></svg>